# xmcd
#
# Track frame offsets: 
#        150
#        27095
#        51255
#        77692
#        94472
#        113860
#        135662
#        163890
#        188750
#        219537
#
# Disc length: 3311 seconds
#
# Revision: 1
# Processed by: cddbd v1.5.2PL0 Copyright (c) Steve Scherf et al.
# Submitted via: ExactAudioCopy v1.0b3
#
DISCID=890ced0a
DTITLE=Tuan Vu - The Best of Tuan Vu
DYEAR=1994
DGENRE=
TTITLE0=No va toi
TTITLE1=Quan nua khuya
TTITLE2=Nhip cau tri am
TTITLE3=Mua mua di qua
TTITLE4=Con duong xua em di
TTITLE5=Em hau phuong anh tien tuyen
TTITLE6=Sao chua thay hoi am
TTITLE7=Ngay do
TTITLE8=Neu hai dua minh
TTITLE9=Chuyen tinh nguoi dan ao
EXTD=
EXTT0=
EXTT1=
EXTT2=
EXTT3=
EXTT4=
EXTT5=
EXTT6=
EXTT7=
EXTT8=
EXTT9=
PLAYORDER=
